<svg xmlns="http://www.w3.org/2000/svg" version="1.1" xmlns:xlink="http://www.w3.org/1999/xlink" xmlns:svgjs="http://svgjs.dev/svgjs" viewBox="0 0 5.796968049606806 4.511506423489537"><g transform="matrix(1,0,0,1,2.9002049147302618,4.273509132674911)"><g transform="matrix(1,0,0,1,0,0)"><path d=" M -2.196532400598022 -1.6150305922555088 L -2.2735957448402644 -1.6186858352668716 Q -2.2921236607063165 -1.6196822096358452 -2.3133463587946785 -1.6205790077178803 Q -2.3345690568830406 -1.621475805799915 -2.359204792104623 -1.6225561465288663 Q -2.3838405273262047 -1.6236364872578175 -2.407026642536901 -1.6243943784857173 Q -2.430212757747597 -1.6251522697136171 -2.4370544419409983 -1.6343219565852893 Q -2.4438961261344 -1.6434916434569615 -2.4433717185717825 -1.6532431781233048 Q -2.4428473110091646 -1.662994712789648 -2.4351010237702475 -1.670646423217418 Q -2.4273547365313304 -1.678298133645188 -2.411778501443312 -1.6769715048116824 Q -2.141592940502381 -1.6546179672159664 -1.9880062695074745 -1.6463585481047374 Q -1.740804865715673 -1.6330648163923787 -1.6825996918040143 -1.6333576285280234 Q -1.6669447955816032 -1.6334937298944694 -1.6595762040876882 -1.625029187744642 Q -1.6522076125937732 -1.6165646455948146 -1.6527189099673256 -1.60705689929513 Q -1.6532302073408778 -1.5975491529954453 -1.6611940625683226 -1.590398129490058 Q -1.6691579177957674 -1.5832471059846707 -1.6847341528837856 -1.584573734818176 Q -1.8450420166326087 -1.595150546156506 -1.9600576849391975 -1.6023137088620294 Q -1.9662919124593836 -1.559129142621849 -1.9703298506915399 -1.4840423256910058 Q -1.9745251111924815 -1.4060300483602597 -1.9721558897087053 -1.3682506564916603 Q -1.8248814958687913 -1.36081967902945 -1.6999045298708122 -1.3570327226278462 Q -1.683788277293215 -1.3566550268828443 -1.675971439633179 -1.3474328992549103 Q -1.6681546019731432 -1.3382107716269762 -1.6686921197248263 -1.3282154485939746 Q -1.6692296374765097 -1.3182201255609727 -1.6772066028930197 -1.3108253136889267 Q -1.68518356830953 -1.3034305018168808 -1.7119478478857122 -1.305847776080714 Q -1.7387121274618944 -1.308265050344547 -1.7888800902373003 -1.3119409027586624 Q -1.8390480530127065 -1.315616755172778 -1.8955545133212355 -1.319633472502595 Q -1.9905795355618205 -1.325721599704752 -2.0900451891585217 -1.3310705568434527 Q -2.1895108427552232 -1.3364195139821533 -2.2302366101762714 -1.3383651271894237 Q -2.27096237759732 -1.340310740396694 -2.3046313925743354 -1.341632369754408 Q -2.3573683409069814 -1.343001440392592 -2.4268402204411967 -1.3423365434873233 Q -2.4424951166636077 -1.3422004421208773 -2.4495805892236677 -1.351383239181615 Q -2.4566660617837277 -1.3605660362423526 -2.4560892134648484 -1.3712927243753303 Q -2.4555123651459687 -1.3820194125083078 -2.447482958973197 -1.390389377846988 Q -2.439453552800425 -1.3987593431856682 -2.416833675457439 -1.3965649421359478 Q -2.3942137981144525 -1.3943705410862273 -2.362086174471781 -1.3916648426629545 Q -2.3299585508291103 -1.3889591442396818 -2.291222420908527 -1.386387047444959 Q -2.2524862909879433 -1.3838149506502366 -2.205191347856178 -1.3812715739715407 Q -2.1608480855024474 -1.378397942828313 -2.018475679373836 -1.3707415924140944 Q -2.0118693670840258 -1.4026594530317182 -2.0073332416673826 -1.4870102278955875 Q -2.0029806588976555 -1.5679479656262365 -2.0058898978710107 -1.6047784244063328 Q -2.024417813737063 -1.6057747987753064 -2.0414829994031636 -1.6066925120098872 L -2.196532400598022 -1.6150305922555088 M -2.319020371894367 -2.183875455944273 Q -2.3151659681953465 -2.194942193209044 -2.302731684058853 -2.200952471180503 Q -2.29029739992236 -2.206962749151962 -2.259169755803539 -2.2020674509710068 Q -2.2280421116847173 -2.1971721527900514 -2.169856549844301 -2.1890575148416227 Q -2.1116709880038846 -2.1809428768931944 -2.0452243004725954 -2.1727947637685956 Q -1.978777612941306 -2.1646466506439968 -1.9079296554996992 -2.1565167783674246 Q -1.8370816980580922 -2.1483869060908525 -1.7701532100644253 -2.14162213512435 Q -1.6129971856493104 -2.1266994687866405 -1.5392298413805723 -2.1232403507044406 Q -1.520562619889458 -2.1219092855287722 -1.512907413119035 -2.111228814321172 Q -1.505252206348612 -2.1005483431135716 -1.5083036092770032 -2.0917871761122946 Q -1.5113550122053943 -2.083026009111017 -1.5189165691740318 -2.07764534298957 Q -1.5264781261426694 -2.072264676868123 -1.553305486837915 -2.0754037165585335 Q -1.5801328475331606 -2.0785427562489436 -1.640263852071114 -2.0855252954753043 Q -1.7003948566090672 -2.0925078347016646 -1.7694683147121022 -2.100536720491495 Q -1.772395599182421 -2.1010392073635513 -1.7748617696000408 -2.1013810940814817 Q -1.787165922238695 -2.0705071389603407 -1.8070803413503007 -2.013328996425689 Q -1.830527963852675 -1.9460063447316636 -1.8410497195095705 -1.9098581620573523 Q -1.8384436353475035 -1.9084334470798983 -1.8358375511854366 -1.9070087321024445 Q -1.710066629093665 -1.831664329574817 -1.6404846710788075 -1.7924353972322895 Q -1.618573855932427 -1.7796336488448832 -1.6254796625598384 -1.7598057445788347 Q -1.632706669495502 -1.7390556122073884 -1.6546016893555078 -1.7415108784619378 Q -1.6610779725029698 -1.7422153383074774 -1.6725437645914036 -1.7508621690972905 Q -1.6840095566798374 -1.7595089998871036 -1.712785366592503 -1.7785796063669534 Q -1.7415611765051688 -1.7976502128468035 -1.779077467009433 -1.8213161645672669 Q -1.8165937575136972 -1.84498211628773 -1.861316929502177 -1.872450755683017 Q -1.9060401014906567 -1.899919395078304 -1.9533693576412035 -1.9288127494510448 Q -2.00069861379175 -1.9577061038237855 -2.0487195410213452 -1.9868403584277152 Q -2.0967404682509403 -2.015974613031645 -2.141624240393546 -2.042982138374233 Q -2.1865080125361516 -2.069989663716821 -2.2257988023789874 -2.093756601924026 Q -2.2650895922218233 -2.117523540131231 -2.2880625492180484 -2.1317293170864127 Q -2.3288169812960438 -2.155747498729646 -2.319020371894367 -2.183875455944273 M -1.880881923482168 -1.9335551433923337 Q -1.866831855557808 -1.9679574107809394 -1.8461144356755732 -2.0274411235790852 Q -1.828930219184107 -2.076780327217857 -1.820035151478149 -2.106773427052958 Q -1.865369133510383 -2.1117046459717357 -1.913008685806111 -2.1174388656611427 Q -1.987014484744386 -2.1261515248868337 -2.056388456745994 -2.134802124883489 Q -2.170013582520313 -2.1485238575433687 -2.2555679191857365 -2.1597075783099844 Q -2.206233606670269 -2.1306329373734387 -2.121838830863317 -2.0790062025904716 Q -2.0090983295818807 -2.010785374950114 -1.9501219947790953 -1.975250246152481 Q -1.914579731025234 -1.9540814944641556 -1.880881923482168 -1.9335551433923337 M -1.6070946042093486 -2.3779113744787415 Q -1.5137492381662225 -2.3180166970035123 -1.4453228147018364 -2.273597773233192 Q -1.4313966805835878 -2.2645471884708104 -1.429777321635401 -2.252734705480929 Q -1.428157962687214 -2.2409222224910477 -1.433856962971401 -2.232693200457521 Q -1.4395559632555879 -2.224464178423994 -1.450086906959225 -2.222551235150103 Q -1.4606178506628622 -2.2206382918762118 -1.4730617376403905 -2.2292562923059576 L -1.7749263507726916 -2.438312302730763 Q -1.9314784772641773 -2.546732308137244 -2.061199347302854 -2.6252854139646056 Q -2.0796956385383534 -2.6363131674477103 -2.0790137052162514 -2.6518773918250957 Q -2.0787656150264286 -2.6582389647206126 -2.076031738423504 -2.6634729532488373 Q -2.0732978618205795 -2.668706941777062 -2.0667168497596364 -2.6885009860104687 Q -2.049723903891394 -2.7379088044345994 -2.0215069024843224 -2.778652498893281 Q -1.9932899010772511 -2.8193961933519627 -1.9657710467039449 -2.8398353376853933 Q -1.9382521923306386 -2.860274482018824 -1.906721069067272 -2.866353019701905 Q -1.839582328203647 -2.879250589238606 -1.7629119277937142 -2.826152586590817 Q -1.6641636633913923 -2.757764583180575 -1.6261714687306412 -2.6162279324692093 Q -1.6199370879291437 -2.5934980449787584 -1.6152161228920496 -2.56944049466636 Q -1.4675474088477396 -2.525379229984876 -1.305609705824665 -2.4916300992414246 Q -1.2772612572085218 -2.4862520755076956 -1.2805698651501218 -2.4600341211314047 Q -1.28149737106276 -2.4535491325407977 -1.2859453712845643 -2.4471264811975573 Q -1.295953371783624 -2.432675515675266 -1.3165814160586193 -2.438052280609352 Q -1.3628090774348132 -2.451060979212109 -1.4043581209106863 -2.4643931719646104 Q -1.4459071643865595 -2.477725364717112 -1.4853718371582836 -2.490207973116183 Q -1.5562105312753147 -2.513133683946237 -1.6087997655470259 -2.5263904727388167 Q -1.6004424433035356 -2.4552687434093494 -1.6070946042093486 -2.3779113744787415 M -1.6460630966014271 -2.4031171286688475 Q -1.6390693396347416 -2.492116811958722 -1.6641290197361782 -2.5914361819844887 Q -1.6990033945963587 -2.725468091121203 -1.7857091877301048 -2.785516094115562 Q -1.8756263065354712 -2.847788097220823 -1.9453643297938408 -2.802835831816356 Q -1.9837232965083302 -2.7783220813454985 -2.0102604899193133 -2.7177057916943803 Q -2.0229575022852373 -2.689080601864018 -2.026049188660698 -2.667463973228661 Q -1.908837060446203 -2.5785675648395836 -1.8269482558198873 -2.521855562011578 Q -1.7398410469771888 -2.461529559003356 -1.7330786877725408 -2.457143266629097 Q -1.7263163285678926 -2.452756974254837 -1.720758216490102 -2.4492046819221662 Q -1.7152001044123115 -2.445652389589495 -1.7091015766186373 -2.4420228050974373 Q -1.7030030488249628 -2.4383932206053798 -1.6917478246624502 -2.4314893437945138 Q -1.6804926004999379 -2.4245854669836473 -1.6626757249872537 -2.4134342978054533 Q -1.6551722422122455 -2.4088317132648758 -1.6460630966014271 -2.4031171286688475 M -1.1625128315846371 -3.3501134059598425 L -1.0571556090790772 -3.2087944697496242 Q -0.9472477093324785 -3.0605161711700974 -0.8092563565216806 -2.8874697614860234 Q -0.7995597134251973 -2.875207862928356 -0.8020630248774268 -2.8642354747689422 Q -0.8045663363296562 -2.8532630866095285 -0.8131962902152372 -2.846866330539621 Q -0.8218262441008182 -2.840469574469713 -0.8338300633339495 -2.8419044656877372 Q -0.8458338825670808 -2.8433393569057617 -0.8551382550324014 -2.85589201710297 Q -0.9800969333585297 -3.0367752257193352 -1.0673254252209095 -3.154456415068166 L -1.2179399545032854 -3.3576526020104804 Q -1.234804129596679 -3.380404298617921 -1.2500252438444464 -3.4001193391676807 Q -1.2339404583690194 -3.3603795794489377 -1.2081263474821042 -3.2968541162268568 Q -1.152570267752287 -3.1563042663458876 -1.1318307202220208 -3.10208490661243 Q -1.1110911726917543 -3.047865546878972 -1.0913692908998824 -2.9950191343545844 Q -1.0506747371016751 -2.885998891608587 -1.0227323994373139 -2.8015626589635754 Q -1.0192707904334652 -2.7919726765030726 -1.0232279100834012 -2.782961641499473 Q -1.027185029733337 -2.7739506064958728 -1.033461359831941 -2.7692984202632127 Q -1.045621749397987 -2.7602848094374335 -1.061567191922428 -2.77277725664899 Q -1.0681807313109022 -2.777599778549888 -1.0933195788192014 -2.796345332034885 Q -1.1184584263275004 -2.815090885519882 -1.1555597970629612 -2.8425954325527276 Q -1.192661167798422 -2.8700999795855733 -1.238512918390767 -2.9044899106667526 Q -1.2843646689831123 -2.938879841747932 -1.33260014985526 -2.9748457380214237 Q -1.380835630727408 -3.010811634294915 -1.4279011823737289 -3.0464291317653935 Q -1.4749667340200499 -3.0820466292358715 -1.5144449523676515 -3.1123478251826677 Q -1.5470188696872378 -3.1374342285974026 -1.5704501365187769 -3.1559260096033457 L -1.4975567086502173 -3.059224416354062 Q -1.3658416859380236 -2.8815258204373273 -1.2760496696377626 -2.7681759491887896 Q -1.1862576533375013 -2.654826077940252 -1.1719088240083577 -2.6362878492839803 Q -1.1575599946792143 -2.6177496206277087 -1.1565191051156556 -2.611835454667441 Q -1.1554782155520968 -2.6059212887071737 -1.156973319755773 -2.600558539533163 Q -1.1626767402662592 -2.576273904762682 -1.1877596816343887 -2.578954434550811 Q -1.19976350086752 -2.5803893257688353 -1.2112855747898876 -2.5979838670076876 Q -1.222807648712255 -2.61557840824654 -1.2407772332003413 -2.641461387235621 Q -1.2587468176884273 -2.667344366224702 -1.2792893851042357 -2.6958786133079626 Q -1.3271497813016 -2.7637276671637987 -1.3693102190350837 -2.8206069086824 L -1.638610558591589 -3.1740840433660247 Q -1.651694832370946 -3.191736221768349 -1.6488362394480414 -3.2050992228752273 Q -1.6459776465251366 -3.218462223982105 -1.634994068852579 -3.2266035498892602 Q -1.6142037254009522 -3.2420139167849475 -1.587749567847056 -3.222723829181356 Q -1.5852204567474828 -3.2209517286734615 -1.573308688016132 -3.211851218990261 Q -1.561396919284781 -3.2027507093070597 -1.542093952570292 -3.188188517280406 Q -1.5227909858558033 -3.173626325253752 -1.4973613767079628 -3.1544885011375925 Q -1.4719317675601225 -3.1353506770214326 -1.442759246258733 -3.11321318600808 Q -1.4135867249573437 -3.0910756949947276 -1.38159433091684 -3.0667738328423177 Q -1.2702532295499702 -2.9821603404358576 -1.0759590068552947 -2.8356523699153726 Q -1.108281686092457 -2.9399378344167704 -1.2471280135888505 -3.290433291532908 Q -1.2748621816256098 -3.359829048887107 -1.3043409194996167 -3.431578430028283 Q -1.3173426012670344 -3.4638788130902567 -1.2918450102414543 -3.482778319660439 Q -1.2816459738312225 -3.490338122288512 -1.2681513572398972 -3.484842026606751 Q -1.254656740648572 -3.4793459309249903 -1.2414847232129167 -3.4599354173500947 Q -1.223572775888303 -3.432490238504024 -1.1625128315846371 -3.3501134059598425 M -0.48785098343987554 -2.9577005609545326 Q -0.5855128988015941 -2.9280946115251383 -0.6621377013847448 -3.0150744569765062 Q -0.7387625039678954 -3.1020543024278737 -0.7985410238683952 -3.2992472607180425 Q -0.8457122255908276 -3.4548521306484363 -0.8249234606873297 -3.5764648825970964 Q -0.814337753400139 -3.635798585266164 -0.7862336216235258 -3.6777379700056096 Q -0.7581294898469126 -3.7196773547450555 -0.7092985321660534 -3.7344803294597524 Q -0.6604675744851941 -3.7492833041744498 -0.6162993752406196 -3.734865551391096 Q -0.5721311759960452 -3.7204477986077427 -0.5337093076961635 -3.6795421820462213 Q -0.4583667559214768 -3.5993167659690553 -0.4027532616130093 -3.4192292663003254 Q -0.34430666209598737 -3.229796128797938 -0.36743183645789956 -3.107475100547139 Q -0.3901890680781569 -2.9873065103839274 -0.48785098343987554 -2.9577005609545326 M -0.6428885176015706 -3.694660992422569 Q -0.6690295966932832 -3.70178801098711 -0.6956646645192064 -3.6937136611427297 Q -0.7222997323451297 -3.6856393112983494 -0.7396158691799236 -3.66533835351403 Q -0.7569320060147174 -3.6450373957297098 -0.7670890034105832 -3.615426665096161 Q -0.7772460008064489 -3.5858159344626124 -0.7805768388592559 -3.5488353861767803 Q -0.783907676912063 -3.511854837890948 -0.7817792386510746 -3.471171899456082 Q -0.776488459195704 -3.3880785502800452 -0.7530445135949155 -3.310743397206531 Q -0.7296005679941271 -3.233408244133017 -0.7078941551801861 -3.1828433630198827 Q -0.6861877423662451 -3.1322784819067486 -0.6643626370243626 -3.097311423464005 Q -0.64253753168248 -3.0623443650212616 -0.6205652222928416 -3.041197987367591 Q -0.5985929129032033 -3.0200516097139207 -0.5775634231001882 -3.0095892414033565 Q -0.5388324397755662 -2.9912272017218697 -0.49677706952410844 -3.003976175160365 Q -0.37248008633646656 -3.0416564744341397 -0.4151144408597007 -3.2782316693114404 Q -0.42490516543572865 -3.3324087595654817 -0.4413371756453447 -3.386613459000694 Q -0.45776918585496074 -3.4408181584359063 -0.4733641667539529 -3.4804800961893214 Q -0.4889591476529449 -3.5201420339427365 -0.5076052654384612 -3.555562569686577 Q -0.5262513832239775 -3.590983105430418 -0.5476156578001483 -3.620222283967739 Q -0.5689799323763192 -3.6494614625050605 -0.5928636854430887 -3.668497718181544 Q -0.6167474385098581 -3.6875339738580273 -0.6428885176015706 -3.694660992422569 M 0.21787597785841256 -3.805115000183021 Q 0.21180524885663066 -3.562009075512851 0.21050268750487328 -3.461187411230721 Q 0.2092001261531159 -3.360365746948591 0.20883554340104066 -3.3132473843146855 Q 0.20847096064896548 -3.2661290216807806 0.20841042227937345 -3.2236457899427804 Q 0.20822626750862722 -3.1337969214167978 0.20902109205807856 -3.100824917821528 Q 0.20981591660752985 -3.0678529142262585 0.20680447213650988 -3.061543634480219 Q 0.2037930276654899 -3.0552343547341794 0.1988538523871019 -3.050903268220758 Q 0.17860260296539565 -3.033096989465229 0.15633277383016436 -3.048034363560361 Q 0.14762013837807114 -3.054006790077151 0.14386560161383455 -3.0657750246223574 Q 0.10252785038829448 -3.192296161589642 0.04389413822327026 -3.3407710819429695 Q -0.01473957394175393 -3.4892460022962974 -0.03787488329213984 -3.550585147775728 Q -0.07989641692052066 -3.661977136891224 -0.11092811545387865 -3.754670907344195 L -0.11338037429181508 -3.0734934014306643 Q -0.1135759161896576 -3.05835794577572 -0.12148238131697207 -3.051135263051246 Q -0.12938884644428655 -3.043912580326772 -0.1393977767967498 -3.0440418902914748 Q -0.14940670714921306 -3.044171200256177 -0.15784683723460424 -3.052337555143881 Q -0.16628696731999543 -3.060503910031585 -0.16559056931084226 -3.07660953889337 Q -0.1589735183929024 -3.2108125997363146 -0.15675317168191644 -3.382673257495684 L -0.15301264441028384 -3.6721998769596214 Q -0.15203493492107126 -3.7478771552343435 -0.15230494197757213 -3.802572707400455 Q -0.15207155326079236 -3.8206376060853886 -0.1409631397367866 -3.830016370361839 Q -0.12985472621278082 -3.8393951346382895 -0.11764871358782561 -3.8392374395593842 Q -0.09030724530792597 -3.838884202582636 -0.08185322978523737 -3.8128939153609194 Q -0.07339921426254878 -3.786903628139203 -0.0578518259800887 -3.7429979454377085 Q -0.04230443769762868 -3.6990922627362135 -0.022977281438307157 -3.6453713075095053 Q -0.003650125178985636 -3.591650352282797 0.01852447266929441 -3.5315444236721745 Q 0.04069907051757443 -3.471438495061552 0.06287997616901064 -3.4118208069559284 Q 0.08506088182044691 -3.352203118850304 0.10582437448056004 -3.296266157941635 Q 0.12658786714067327 -3.240329197032966 0.14357789962708117 -3.1946957491545094 Q 0.16056793211348913 -3.1490623012760524 0.17235762973013447 -3.116680732867265 Q 0.17282694682566407 -3.1152097035491146 0.17330257172434982 -3.114226914735962 Q 0.17063297710298136 -3.2099725161408603 0.16964887710707482 -3.3227876118112274 Q 0.16898016726897885 -3.460014732731505 0.16815441794335456 -3.5283904807423006 Q 0.16732866861773027 -3.5967662287530966 0.16652499660315268 -3.666850818531386 Q 0.16572132458857514 -3.7369354083096757 0.1641695223086097 -3.805808858530204 Q 0.16437137200960844 -3.821432554690147 0.1730133517959983 -3.8288898959623854 Q 0.18165533158238817 -3.836347237234624 0.19190838218735057 -3.8362147733683436 Q 0.2021614327923129 -3.836082309502063 0.2101196301758621 -3.8284105029225133 Q 0.2180778275594113 -3.8207386963429637 0.21787597785841256 -3.805115000183021 M 0.5900837940995791 -3.118273333845913 L 0.5498262057131715 -2.981962905834752 Q 0.543097645525003 -2.961045829067793 0.52071783965856 -2.9600381592860128 Q 0.5150066822099106 -2.9598236227305024 0.5080343232875909 -2.9620664761265583 Q 0.5010619643652713 -2.9643093295226146 0.49562709632230406 -2.974520824852697 Q 0.49019222827933695 -2.9847323201827787 0.49689478643446716 -3.0007849989530575 Q 0.5035973445895975 -3.016837677723336 0.5106899648930138 -3.0325084209698003 Q 0.5177825851964302 -3.0481791642162643 0.5245599051314289 -3.0644642549506202 Q 0.5403736516464261 -3.102462799997451 0.5474012589540689 -3.1243095246207195 Q 0.5544288662617116 -3.1461562492439876 0.5590478433646175 -3.1621097863609826 Q 0.5636668204675237 -3.1780633234779776 0.5681200207617492 -3.195096032011019 Q 0.57199138006597 -3.208725449487241 0.5764445803601954 -3.225758158020282 Q 0.5736653697490068 -3.269737645456596 0.5692771507978436 -3.3198768610207705 Q 0.5641120518693545 -3.3851407296585374 0.5585828928256176 -3.455650931816799 Q 0.534873501559639 -3.742307473233506 0.5416020617478076 -3.763224550000465 Q 0.5453401507412345 -3.7748451482043315 0.5545553630596104 -3.7795746537305948 Q 0.5637705753779862 -3.784304159256858 0.5748434612493576 -3.7812551795311915 Q 0.5859163471207287 -3.778206199805525 0.5894919194510773 -3.7685927987143915 Q 0.5930674917814259 -3.7589793976232575 0.5917624286925063 -3.7142620411723533 Q 0.5904573656035869 -3.669544684721449 0.5929895489877336 -3.597690392685177 Q 0.5955217323718804 -3.5258361006489043 0.6003877841808953 -3.459642584154828 Q 0.6065605528911642 -3.371998909650618 0.6174953336255835 -3.27205203213963 Q 0.6305981584971234 -3.2888669597979145 0.6453782490236581 -3.3077069599774975 Q 0.6700724099204237 -3.3382325713567207 0.6965852334074494 -3.372020076857498 Q 0.7230980568944751 -3.405807582358275 0.7506737985486038 -3.4413048600119343 Q 0.7782495402027325 -3.476802137665593 0.8041398895773948 -3.5110463404700534 Q 0.8670308471748471 -3.5949389487038506 0.8859553420920381 -3.6234736162192847 Q 0.9048798370092292 -3.6520082837347188 0.9147353988485352 -3.66191748762608 Q 0.9245909606878411 -3.6718266915174413 0.9366763828198619 -3.6679390789642774 Q 0.9589879313712848 -3.660761948096898 0.9519603240636421 -3.6389152234736293 Q 0.9465774759131071 -3.622181562060062 0.8855311829389534 -3.546415245944499 Q 0.8244848899647996 -3.4706489298289362 0.8062088711930102 -3.4465219630065 Q 0.7879328524212208 -3.422394996184063 0.7714007344598229 -3.4012975115191035 Q 0.7548686164984251 -3.3802000268541437 0.7358953618344037 -3.356297345371313 Q 0.7169221071703824 -3.332394663888482 0.6968030459349179 -3.3073217959607923 Q 0.6766839846994533 -3.2822489280331033 0.6585493628629293 -3.2593587828109216 Q 0.6384221750029931 -3.235057912555333 0.6248545262032985 -3.2183925084567857 Q 0.5959152129293253 -3.136401467043944 0.5900837940995791 -3.118273333845913 M 1.325568069383493 -2.9780502082584515 L 1.3431070726870236 -2.9686102994271257 Q 1.3992947850221924 -2.9208601509566607 1.4090201600699637 -2.867504301275478 Q 1.418745535117735 -2.8141484515942956 1.3776614569218646 -2.764486556331819 Q 1.327551331243568 -2.7039140931707673 1.2487932959554466 -2.6822503951089813 Q 1.1426801220532075 -2.6527988455916254 1.0319223856917064 -2.698165178498238 Q 0.9640510799461384 -2.726430207806241 0.9574055822248462 -2.749038043411708 Q 0.9533560349887438 -2.7625274994791362 0.9661169986707944 -2.777952785128845 L 1.2194961628049825 -3.076573991329965 L 1.253421651618239 -3.1175826775694344 Q 1.2979294029970987 -3.1713830641037846 1.324559498354243 -3.207020267291412 Q 1.3511895937113874 -3.242657470479039 1.3690467382883622 -3.266541014763878 Q 1.386903882865337 -3.2904245590487164 1.4016810890072708 -3.310202103792995 Q 1.4164582951492046 -3.3299796485372735 1.42310554798898 -3.3330356263991696 Q 1.4297528008287554 -3.3360916042610658 1.436069993217076 -3.3353015164329047 Q 1.4507667864814073 -3.333916291164461 1.501068291202053 -3.3062447052868205 Q 1.5513697959226986 -3.2785731194091796 1.5750720641161537 -3.2589648093611507 Q 1.6980981228345624 -3.1571883429213807 1.612195050243197 -3.0533498346452927 Q 1.5424766145168718 -2.9690751032907863 1.3964184503503208 -2.9733027830326777 Q 1.3623425442756338 -2.9742434103393927 1.325568069383493 -2.9780502082584515 M 1.0152556382124225 -2.760748863197971 Q 1.0474161650410072 -2.7360443722550176 1.0862154135511994 -2.7254928463022443 Q 1.1306443849538157 -2.714086249058685 1.162502261032495 -2.712762558124462 Q 1.1943601371111745 -2.711438867190239 1.225970059625923 -2.71824168042977 Q 1.295312146655864 -2.733119627568361 1.3407536270846294 -2.7880486935404947 Q 1.3728116577980738 -2.8268000209043973 1.3594556788928636 -2.8727031616112284 Q 1.3472420537219305 -2.9138589993094097 1.3054809145239386 -2.948406974155937 Q 1.2693631725148644 -2.9782863037529337 1.2384373314761699 -2.989928874273852 Q 1.2200945660479845 -2.9968651646756013 1.2087051533378848 -2.9999502462489676 Q 1.201546563955271 -2.9912970372259604 1.193830472002012 -2.9812039057485338 Q 1.1717322178209 -2.9544918257209893 1.1457759176631586 -2.922733179954732 Q 1.1198196175054171 -2.8909745341884743 1.0940514305873061 -2.859060266913899 Q 1.0384688975348244 -2.790340788134353 1.0152556382124225 -2.760748863197971 M 1.2376507538849753 -3.0349393088202583 Q 1.2979085860095487 -3.002833356960524 1.3981765140781839 -3.0060687335781973 Q 1.4697519994105468 -3.0083259702366405 1.524848789394694 -3.0381572564702237 Q 1.5531752919283566 -3.054013465785168 1.5724723589597502 -3.077339507499362 Q 1.591769425991144 -3.1006655492135557 1.5967271088026482 -3.1215957339687623 Q 1.6016847916141526 -3.1425259187239694 1.5970503932144178 -3.1622026002544668 Q 1.587354060769555 -3.1987411018692495 1.5459691480508244 -3.2329778336991413 Q 1.4989408381431755 -3.2718832107785643 1.4480647074269868 -3.285454834842078 Q 1.4440185482107268 -3.2805638906116825 1.4371062183821226 -3.272974377563833 Q 1.4255252433039878 -3.2597414673270655 1.4024282766103437 -3.232588177357634 Q 1.3562343432230557 -3.1782815974187715 1.3011443292785931 -3.1116895105895406 L 1.2376507538849753 -3.0349393088202583 M 1.8121442260558958 -2.802443066430723 Q 1.7912208276369168 -2.785998195259994 1.6448725809284124 -2.6687871007111132 Q 1.498524334219908 -2.5515760061622323 1.34059432518392 -2.4175820398882024 Q 1.3287038751835991 -2.407433333449992 1.316272790449881 -2.4096760475215673 Q 1.3038417057161629 -2.4119187615931423 1.2972791053703272 -2.4201127389479153 Q 1.2907165050244913 -2.4283067163026884 1.291396819192645 -2.4391736759092604 Q 1.2920771333607988 -2.450040635515832 1.3125055995533508 -2.4651507407843862 Q 1.332934065745903 -2.4802608460529405 1.3686071409705909 -2.507580440337003 Q 1.4042802161952788 -2.5349000346210655 1.4445266741296074 -2.5658824756097807 Q 1.5242573595466582 -2.6272368831364354 1.5922864273525645 -2.681721727868142 Q 1.6603154951584709 -2.736206572599848 1.6980838415132151 -2.7667682341388273 Q 1.7358521878679594 -2.797329895677806 1.7672553923846692 -2.8237320530619807 Q 1.837227112707938 -2.881649522661505 1.8770890049690134 -2.9185797764859682 Q 1.888368980518559 -2.929490713375785 1.8987022062866332 -2.928695719595145 Q 1.9090354320547078 -2.9279007258145056 1.9160558882386252 -2.9191350756210275 Q 1.9230763444225425 -2.9103694254275494 1.923273802930344 -2.898015943917972 Q 1.9234712614381457 -2.885662462408394 1.9089121422453383 -2.874940357907754 Q 1.8943530230525312 -2.864218253407114 1.8801750190855273 -2.8538013861318614 Q 1.8659970151185234 -2.8433845188566087 1.8495323197966993 -2.83113622822903 Q 1.833067624474875 -2.8188879376014513 1.8121442260558958 -2.802443066430723 M 2.146933955756875 -2.56552878497825 Q 2.153418141375753 -2.5534923609712803 2.233741034858731 -2.4126273864940337 Q 2.244393625518317 -2.3928532613397264 2.233284922492495 -2.377440200454754 Q 2.2299125118641316 -2.3734049307327303 2.22432417214661 -2.3703944159811083 Q 2.218735832429088 -2.3673839012294864 2.209458885701329 -2.3707056817384036 Q 2.2001819389735693 -2.374027462247321 2.191117110889032 -2.3918838040296295 Q 2.182052282804495 -2.409740145811938 2.1739962721504633 -2.426753384937155 Q 2.165940261496432 -2.4437666240623725 2.1587280578744314 -2.4581839875569753 Q 2.14592469703515 -2.4840096085444388 2.135768546320869 -2.501832666497076 Q 2.0350452960867957 -2.452008691486852 1.9194096511626944 -2.3897141939340565 Q 1.7956064328052919 -2.323019713282736 1.7499408233791194 -2.298141713982235 Q 1.704275213952947 -2.273263714681734 1.6630407583301503 -2.24994089850155 Q 1.5571271655847274 -2.1912199233050234 1.5062372254425944 -2.162140939509084 Q 1.4918531457776625 -2.1538374132573397 1.4809392151052878 -2.1571092680217503 Q 1.4700252844329131 -2.1603811227861613 1.46550951230548 -2.168763632362444 Q 1.4609937401780468 -2.177146141938726 1.4633725665408603 -2.1886882391252103 Q 1.4657513929036738 -2.2002303363116944 1.4790774337685333 -2.207409256104024 L 1.5351591251718957 -2.2381758539640253 L 1.948002938844925 -2.4550341763197094 Q 2.0627788391971 -2.516865517756871 2.111452850250075 -2.5469692565232123 Q 2.099609085471733 -2.569984065737079 2.0805545258212694 -2.6002068523233075 Q 2.0580595791332215 -2.6357864005692404 2.0480691431923557 -2.651757538434281 Q 2.03807870725149 -2.6677286762993218 2.0408215426158645 -2.6780803037419894 Q 2.043564377980239 -2.6884319311846565 2.0519468875565217 -2.6929477033120897 Q 2.060329397132804 -2.697463475439523 2.072202219491178 -2.6949855019626363 Q 2.084075041849552 -2.69250752848575 2.091651254473114 -2.6768996952473305 Q 2.0992274670966755 -2.661291862008911 2.104818624313957 -2.6498836045160505 Q 2.1104097815312377 -2.6384753470231903 2.114495681372708 -2.6298612593890907 Q 2.1185815812141775 -2.6212471717549914 2.1216253797954705 -2.6145675094077263 Q 2.124669178376764 -2.607887847060461 2.128043702129947 -2.601109037599123 Q 2.13141822588313 -2.5943302281377845 2.1360497870394717 -2.5857327824185203 L 2.146933955756875 -2.56552878497825 M 1.8431597861378153 -1.958757849449059 L 1.6765330702798442 -1.910975084062596 Q 1.6539675783399181 -1.9046414453170457 1.6379836882158039 -1.900155117872281 Q 1.631063922791776 -1.8977057413488814 1.6258926642222096 -1.8962542824696929 Q 1.6591442676363488 -1.7777854497850814 1.6738570999571838 -1.7398215597632178 Q 1.689435899115031 -1.7005792773023078 1.689402752754156 -1.6934698722577002 Q 1.689369606393281 -1.6863604672130927 1.6864580847265345 -1.6804717657941506 Q 1.6806350413930415 -1.6686943629562667 1.6705275814616165 -1.6658574206014891 Q 1.6604201215301913 -1.6630204782467113 1.6506262827544764 -1.6699074146280148 Q 1.6408324439787618 -1.6767943510093182 1.6372863453648272 -1.6930421427478304 Q 1.6217579003845937 -1.7718562673694973 1.6003444213033016 -1.8327897883431026 Q 1.5789309422220097 -1.8937233093167076 1.5756444432682886 -1.9009152629453523 Q 1.5723579443145672 -1.908107216573997 1.571883845263118 -1.9143135237846833 Q 1.5714097462116687 -1.9205198309953697 1.573851153463 -1.9262765816071128 Q 1.578808229959481 -1.939332376884043 1.594585907282578 -1.9427465246907787 Q 1.7324282354455334 -1.9738285917400527 1.8972033380485345 -2.0200773496632896 Q 2.0619784406515356 -2.066326107586527 2.104589770650204 -2.0780325984303256 Q 2.1472011006488723 -2.0897390892741243 2.1824596818050064 -2.099635399814047 Q 2.257884201072444 -2.1218197086039106 2.2884870556615544 -2.1329450093597173 Q 2.3190899102506655 -2.144070310115524 2.3261910287050545 -2.142259812493497 Q 2.333292147159443 -2.14044931487147 2.3375642925311224 -2.1360697611450976 Q 2.342834355547013 -2.1299417005642636 2.3439887664509285 -2.11860126578092 Q 2.3462398994453793 -2.097932804683092 2.355344505142108 -2.0654949100194484 Q 2.37289396249957 -2.002969692769237 2.3818792059335028 -1.9808948730611975 Q 2.3908644493674363 -1.9588200533531581 2.3905962457988537 -1.9516446729049512 Q 2.390328042230271 -1.944469292456744 2.3877546841717407 -1.9391826562604162 Q 2.382871869669078 -1.9276691550369303 2.37205923811453 -1.9246342864713541 Q 2.361246606559982 -1.9215994179057778 2.351819775799174 -1.9280822152752657 Q 2.3423929450383656 -1.9345650126447533 2.3390076416383208 -1.9493364857334208 Q 2.3356223382382755 -1.964107958822088 2.332179346024849 -1.9808918403796147 Q 2.3287363538114234 -1.9976757219371415 2.324398550354295 -2.0167442001681444 Q 2.3147250257958274 -2.0566296634846117 2.304193503672416 -2.085117003204355 Q 2.2632935495313 -2.0736372829780447 2.2227317589984006 -2.0627596279743488 Q 2.174648137818859 -2.0497707600554698 2.1251541733930717 -2.0363860397149933 Q 1.9921860558244098 -2.0005862553311307 1.9291907241587831 -1.9829048471664694 Q 1.9456845750586538 -1.9241405452395788 1.9562903591758833 -1.8971954995732803 Q 1.968026011744523 -1.8680318326371053 1.9640917126629094 -1.8585595842891691 Q 1.9601574135812956 -1.849087335941233 1.9498148964421629 -1.8461844181828557 Q 1.923958603594331 -1.8389271237869127 1.9113078992836678 -1.8876128101890683 Q 1.9090070467479048 -1.897617163719985 1.9067638830255225 -1.9056091087820421 L 1.8965459820578214 -1.943820327237866 L 1.8887608844330823 -1.9715570777473586 L 1.8431597861378153 -1.958757849449059 M 1.8807800430271504 -1.5920198187384782 Q 1.8813894794669033 -1.57494084492196 1.8683709833215256 -1.5700789721156174 Q 1.855352487176148 -1.5652170993092747 1.8250983049868872 -1.5641375261874269 Q 1.7948441227976262 -1.563057953065579 1.768789718037164 -1.5538221781333659 Q 1.7427353132767014 -1.5445864032011527 1.725202772190456 -1.529303021407827 Q 1.6901551024876722 -1.4982482871407035 1.6920356492160522 -1.445547453649733 Q 1.6939161959444324 -1.3928466201587624 1.7338242631032146 -1.363000787950282 Q 1.773732330261997 -1.3331549557418012 1.8464399616523175 -1.3357494137281776 Q 1.9435461270662353 -1.339214495199915 2.0162388751588667 -1.424380473004294 Q 2.036873786553686 -1.4485692143340654 2.056977196093765 -1.4739604698953095 Q 2.077080605633844 -1.4993517254565534 2.0986914583896072 -1.5235752917257392 Q 2.12030231114537 -1.5477988579949251 2.146966995402925 -1.5673168421564638 Q 2.205542154115275 -1.609960142409624 2.282153550949371 -1.612693900153658 Q 2.360716830505355 -1.615497307776521 2.4106801124942643 -1.5708639276327008 Q 2.4601380113329943 -1.5267011056996453 2.46261058203142 -1.4574092690726286 Q 2.4647349033357013 -1.3978768460550506 2.4260794801741645 -1.3583873104622464 Q 2.3817251210743295 -1.3142970891087078 2.3006001008280355 -1.3148224139006124 Q 2.296678922914553 -1.3151710848234264 2.292295893025159 -1.3147703872558254 Q 2.287912863135765 -1.3143696896882244 2.275670064949698 -1.3151543046467238 Q 2.2634272667636313 -1.3159389196052231 2.253589707804845 -1.3246268340346634 Q 2.243752148846058 -1.3333147484641037 2.2433777807473527 -1.3438061180942504 Q 2.2430034126486476 -1.3542974877243974 2.252257653872242 -1.3619565910907676 Q 2.2615118950958366 -1.3696156944571376 2.277214019219475 -1.367733040085409 Q 2.3130622410001216 -1.3626605315279008 2.3313611415178195 -1.3633134991419218 Q 2.349660042035518 -1.3639664667559426 2.3660159768305165 -1.3711460949123595 Q 2.3823719116255155 -1.3783257230687764 2.3946238375751054 -1.390977714292963 Q 2.4205219516368723 -1.4182858168723456 2.419024479242051 -1.4602512953929332 Q 2.4173702946198654 -1.5066085100377684 2.384607452206755 -1.534754940335116 Q 2.348324340212098 -1.5657073074273444 2.297087418762543 -1.563878998108086 Q 2.2458504973129885 -1.5620506887888277 2.214776875225814 -1.549704258841857 Q 2.1837032531386393 -1.5373578288948861 2.158981745368119 -1.5181534799524126 Q 2.1342602375975983 -1.4989491310099388 2.114113296883251 -1.4747778021498745 Q 2.093966356168904 -1.4506064732898105 2.07433350483959 -1.4257206008787455 Q 2.054700653510275 -1.4008347284676808 2.0338217567752204 -1.3766372809030556 Q 2.012942860040165 -1.3524398333384307 1.9872541171435545 -1.3329566741163066 Q 1.929166929111676 -1.2903307863328535 1.8515795909166362 -1.2875622036494052 Q 1.7608170443488536 -1.2843234842838616 1.7049807017245737 -1.329235885471667 Q 1.649649742250473 -1.3736777284487078 1.6468811595670245 -1.4512650666437477 Q 1.6443041140503556 -1.5234847273535963 1.698313411941386 -1.570851022184111 Q 1.748993977417649 -1.6156555763243154 1.8143820486008904 -1.6179888472650834 Q 1.8797701197841317 -1.6203221182058511 1.8807800430271504 -1.5920198187384782" fill="#fffdfa" fill-rule="nonzero"></path></g><g transform="matrix(1,0,0,1,0,0)"><g clip-path="url(#SvgjsClipPath1002)"><g clip-path="url(#be8c584a9-c938-4be7-b68e-a9336cce69399cf48707-0882-47cd-aab6-8089580fc0c9)"><path d=" M -1.1502285698193546 -2.394740078473239 L 1.1502241420985668 -0.2298609074543081" fill="none" transform="matrix(1,0,0,1,0,0)" fill-rule="nonzero" stroke-dashoffset="0" stroke-dasharray="14.777,14.777" stroke-miterlimit="10" stroke-linejoin="miter" stroke-linecap="butt" stroke-width="0.02740741941919526" stroke="#cf9645"></path></g><g clip-path="url(#be8c584a9-c938-4be7-b68e-a9336cce69399cf48707-0882-47cd-aab6-8089580fc0c9)"><path d=" M 1.1502241420985668 -2.394740078473239 L -1.1502285698193546 -0.2298609074543081" fill="none" transform="matrix(1,0,0,1,0,0)" fill-rule="nonzero" stroke-dashoffset="0" stroke-dasharray="14.777,14.777" stroke-miterlimit="10" stroke-linejoin="miter" stroke-linecap="butt" stroke-width="0.02740741941919526" stroke="#cf9645"></path></g><g clip-path="url(#be8c584a9-c938-4be7-b68e-a9336cce69399cf48707-0882-47cd-aab6-8089580fc0c9)"><path d=" M 0.7180968415999991 -1.3101846401846113 C 0.7180968415999991 -0.917101949390629 0.3994362574968997 -0.5984413652875296 0.006353566702917535 -0.5984413652875296 C -0.38672912409106464 -0.5984413652875296 -0.7053897081941642 -0.917101949390629 -0.7053897081941642 -1.3101846401846113 C -0.7053897081941642 -1.7032673309785937 -0.38672912409106464 -2.021927915081693 0.006353566702917535 -2.021927915081693 C 0.3994362574968995 -2.021927915081693 0.7180968415999991 -1.7032673309785937 0.7180968415999991 -1.3101846401846113" fill="#ba8437" transform="matrix(1,0,0,1,0,0)" fill-rule="nonzero"></path></g><g clip-path="url(#be8c584a9-c938-4be7-b68e-a9336cce69399cf48707-0882-47cd-aab6-8089580fc0c9)"><path d=" M 0.7180968415999991 -1.3101846401846113 C 0.7180968415999991 -0.917101949390629 0.3994362574968997 -0.5984413652875296 0.006353566702917535 -0.5984413652875296 C -0.38672912409106464 -0.5984413652875296 -0.7053897081941642 -0.917101949390629 -0.7053897081941642 -1.3101846401846113 C -0.7053897081941642 -1.7032673309785937 -0.38672912409106464 -2.021927915081693 0.006353566702917535 -2.021927915081693 C 0.3994362574968995 -2.021927915081693 0.7180968415999991 -1.7032673309785937 0.7180968415999991 -1.3101846401846113 Z" fill="none" transform="matrix(1,0,0,1,0,0)" fill-rule="nonzero" stroke-dasharray="none" stroke-miterlimit="10" stroke-linejoin="miter" stroke-linecap="butt" stroke-width="0.05084076302260721" stroke="#cf9645"></path></g><g clip-path="url(#be8c584a9-c938-4be7-b68e-a9336cce69399cf48707-0882-47cd-aab6-8089580fc0c9)"><path d=" M 0.6004587159689296 -1.3101846401846113 C 0.6004587159689296 -0.9820684963818895 0.33447519198952325 -0.7160794909185995 0.006353566702917757 -0.7160794909185995 C -0.32176257709980405 -0.7160794909185995 -0.5877461010792101 -0.9820684963818895 -0.5877461010792101 -1.3101846401846113 C -0.5877461010792101 -1.6383007839873331 -0.32176257709980405 -1.9042897894506232 0.006353566702917757 -1.9042897894506232 C 0.33447519198952325 -1.9042897894506232 0.6004587159689296 -1.6383007839873331 0.6004587159689296 -1.3101846401846113" fill="#cf9645" transform="matrix(1,0,0,1,0,0)" fill-rule="nonzero"></path></g><g clip-path="url(#be8c584a9-c938-4be7-b68e-a9336cce69399cf48707-0882-47cd-aab6-8089580fc0c9)"><path d=" M 0.5954431582152169 -1.2326216432282888 C 0.55963810548598 -0.958004782131836 0.3363005261228418 -0.742324835754421 0.058148107921313086 -0.7183049733754381" fill="none" transform="matrix(1,0,0,1,0,0)" fill-rule="nonzero" stroke-dashoffset="0" stroke-dasharray="9.46,9.46" stroke-miterlimit="10" stroke-linejoin="miter" stroke-linecap="butt" stroke-width="0.03288890330303432" stroke="#ba8437"></path></g><g clip-path="url(#be8c584a9-c938-4be7-b68e-a9336cce69399cf48707-0882-47cd-aab6-8089580fc0c9)"><path d=" M -0.07120943025340498 -0.7211005301561964 C -0.34582629134985754 -0.756905582885433 -0.5615062377272728 -0.9802431622485714 -0.5855261001062555 -1.2583955804501004" fill="none" transform="matrix(1,0,0,1,0,0)" fill-rule="nonzero" stroke-dashoffset="0" stroke-dasharray="9.46,9.46" stroke-miterlimit="10" stroke-linejoin="miter" stroke-linecap="butt" stroke-width="0.03288890330303432" stroke="#ba8437"></path></g><g clip-path="url(#be8c584a9-c938-4be7-b68e-a9336cce69399cf48707-0882-47cd-aab6-8089580fc0c9)"><path d=" M -0.5827305433254976 -1.387747637140934 C -0.5469254905962608 -1.6623644982373869 -0.32358791123312247 -1.878044444614802 -0.04543001154770976 -1.9020643069937848" fill="none" transform="matrix(1,0,0,1,0,0)" fill-rule="nonzero" stroke-dashoffset="0" stroke-dasharray="9.46,9.46" stroke-miterlimit="10" stroke-linejoin="miter" stroke-linecap="butt" stroke-width="0.03288890330303432" stroke="#ba8437"></path></g><g clip-path="url(#be8c584a9-c938-4be7-b68e-a9336cce69399cf48707-0882-47cd-aab6-8089580fc0c9)"><path d=" M 0.08391656365924027 -1.8992687502130265 C 0.35853342475569283 -1.86346369748379 0.5742133711331081 -1.6401261181206515 0.5982332335120908 -1.3619736999191228" fill="none" transform="matrix(1,0,0,1,0,0)" fill-rule="nonzero" stroke-dashoffset="0" stroke-dasharray="9.46,9.46" stroke-miterlimit="10" stroke-linejoin="miter" stroke-linecap="butt" stroke-width="0.03288890330303432" stroke="#ba8437"></path></g><g clip-path="url(#be8c584a9-c938-4be7-b68e-a9336cce69399cf48707-0882-47cd-aab6-8089580fc0c9)"><path d=" M 0.03227550398959256 -0.7166386022747513 C 0.015003923284188092 -0.7159004278152947 -0.0022913083944675616 -0.7159004278152947 -0.019562889099872027 -0.7166386022747513 M -0.5871924712069425 -1.2842681843818204 C -0.5879306456663991 -1.3015397650872254 -0.5879306456663991 -1.3188349967658817 -0.5871924712069425 -1.3361065774712868 M -0.01956288909987336 -1.9037361595783557 C -0.002291301700519055 -1.9044740205823318 0.015003916590239585 -1.9044740205823318 0.03227550398959389 -1.9037361595783557 M 0.5999050860966617 -1.3361065774712866 C 0.6006431804996051 -1.3188349950559777 0.6006431804996051 -1.3015397667971305 0.5999050860966617 -1.2842681843818207" fill="none" transform="matrix(1,0,0,1,0,0)" fill-rule="nonzero" stroke-dasharray="none" stroke-miterlimit="10" stroke-linejoin="miter" stroke-linecap="butt" stroke-width="0.03288890330303432" stroke="#ba8437"></path></g><g clip-path="url(#be8c584a9-c938-4be7-b68e-a9336cce69399cf48707-0882-47cd-aab6-8089580fc0c9)"><path d=" M 1.0428747617174627 -1.6965744391564261 C 1.01859726959594 -1.766392099384884 0.9447507187128603 -1.8119158230401675 0.9447507187128603 -1.8119158230401675 C 0.9447507187128603 -1.8119158230401675 0.9412864208982734 -0.876204598133306 0.9412864208982734 -0.8561204411829197 C 0.9412864208982734 -0.8294475406041588 0.9572978353229673 -0.8134361261794649 0.9839707359017282 -0.8134361261794649 C 1.0106436364804892 -0.8134361261794649 1.024879050126819 -0.8246457607219158 1.024879050126819 -0.8561204411829197 C 1.024879050126819 -0.8876006031278072 1.003528670399266 -1.2864498149675883 1.003528670399266 -1.2864498149675883 C 1.003528670399266 -1.2864498149675883 1.077917888186846 -1.305426712173439 1.085372706268867 -1.3293205004230935 C 1.1005564166271014 -1.3778754846661396 1.0697340327482743 -1.619400627555856 1.0428747617174627 -1.6965744391564261" fill="#cf9645" transform="matrix(1,0,0,1,0,0)" fill-rule="nonzero"></path></g><g clip-path="url(#be8c584a9-c938-4be7-b68e-a9336cce69399cf48707-0882-47cd-aab6-8089580fc0c9)"><path d=" M -0.9001194231675462 -1.5008306496645338 C -0.9214533584434479 -1.5008306496645338 -0.9214807658628671 -1.7515975743824028 -0.9303552882708025 -1.7515975743824028 C -0.9392243291948541 -1.7515975743824028 -0.9376018099652377 -1.5008306496645338 -0.9570884851722856 -1.5008306496645338 C -0.9765751603793333 -1.5008306496645338 -0.9712910099153125 -1.7546288349701658 -0.981936051617728 -1.7546288349701658 C -0.9925756118362595 -1.7546288349701658 -0.9907722036384765 -1.5008306496645338 -1.0085760632931857 -1.5008306496645338 C -1.0263689599801273 -1.5008306496645338 -1.0316695548957997 -1.7536202419355393 -1.040582447690922 -1.7536202419355393 C -1.0494788960343928 -1.7536202419355393 -1.0754446851921384 -1.49175879383678 -1.0583808258617473 -1.4566444080769072 C -1.0281449607584912 -1.3943966770920309 -0.9765751603793333 -1.4015226061410218 -0.9765751603793333 -1.349952805761864 C -0.9765751603793333 -1.3120702706406522 -0.9996850964335988 -0.8484902156166156 -0.9996850964335988 -0.8289322811190782 C -0.9996850964335988 -0.8093688651376567 -0.9837010894283241 -0.782685001591128 -0.9552412251034318 -0.782685001591128 C -0.9267813607785395 -0.782685001591128 -0.9125569100999771 -0.8040298998347974 -0.9089939455754817 -0.8289322811190782 C -0.905990092407138 -0.8500414755557422 -0.9321258075652825 -1.3303893897804422 -0.9321258075652825 -1.349952805761864 C -0.9321258075652825 -1.389074156240823 -0.8711607438092246 -1.407305571638472 -0.8503201420828685 -1.4619833733797662 C -0.8360847284365385 -1.4993177601125942 -0.8610364430757739 -1.7536202419355393 -0.8734574855565531 -1.7536202419355393 C -0.8858840095212163 -1.7536202419355393 -0.8787800064077609 -1.5008306496645338 -0.9001194231675462 -1.5008306496645338" fill="#cf9645" transform="matrix(1,0,0,1,0,0)" fill-rule="nonzero"></path></g><g clip-path="url(#be8c584a9-c938-4be7-b68e-a9336cce69399cf48707-0882-47cd-aab6-8089580fc0c9)"><path d=" M -0.2575689193361651 -0.47620975616180283 L -0.2575689193361651 -0.1947081513072484 L 0.2887979867854922 -0.4798110910734854 L 0.291429099049735 -0.1875 Z" fill="#cf9645" transform="matrix(1,0,0,1,0,0)" fill-rule="nonzero"></path></g><g clip-path="url(#be8c584a9-c938-4be7-b68e-a9336cce69399cf48707-0882-47cd-aab6-8089580fc0c9)"><path d=" M 0.018506016473388787 -2.161881161603872 C 0.00425963985929112 -2.1800413177110305 0.011160828069044282 -2.2713792836674407 0.011160828069044282 -2.2713792836674407 C 0.11375776192286002 -2.278823138781694 0.2055287651060933 -2.433971058629875 0.1041213132550709 -2.5715946745014215 C 0.04658217692641231 -2.560017780538754 -0.0296762268655566 -2.560017780538754 -0.1045423337510305 -2.5715946745014215 C -0.1976069671308497 -2.445092989430184 -0.12177063759793638 -2.284474548665932 -0.012053256179014094 -2.272842839864426 C -0.012053256179014094 -2.272842839864426 -0.004702586290785904 -2.173414203695469 -0.016942739803398332 -2.1617331615390083 C -0.029182893316010983 -2.150052119382547 -0.10742559427392973 -2.140530781876319 -0.10742559427392973 -2.13559196489698 C -0.10742559427392973 -2.130368110755681 -0.058793869256509534 -2.131968704049762 0.0006089715926542727 -2.131968704049762 C 0.06001181244181808 -2.131968704049762 0.10777198152170775 -2.127440998361711 0.10777198152170775 -2.1326758154707774 C 0.10777198152170775 -2.1376146324501164 0.03277980050690554 -2.143721005496713 0.018506016473388787 -2.161881161603872" fill="#cf9645" transform="matrix(1,0,0,1,0,0)" fill-rule="nonzero"></path></g></g></g></g><defs><clipPath id="SvgjsClipPath1002"><path d=" M -1.1596183517123708 -2.5716020051274056 h 2.3192367034247416 v 2.3841020051274056 h -2.3192367034247416 Z"></path></clipPath><clipPath id="be8c584a9-c938-4be7-b68e-a9336cce69399cf48707-0882-47cd-aab6-8089580fc0c9"><path d=" M -1.1650998355962099 -2.5770761583852604 L 1.1650954078754223 -2.5770761583852604 L 1.1650954078754223 -0.18201851611616116 L -1.1650998355962099 -0.18201851611616116 Z"></path></clipPath></defs></svg>